<?xml version="1.0" encoding="iso-8859-1"?>
<!-- Generator: Adobe Illustrator 16.0.0, SVG Export Plug-In . SVG Version: 6.00 Build 0)  -->
<!DOCTYPE svg PUBLIC "-//W3C//DTD SVG 1.1//EN" "http://www.w3.org/Graphics/SVG/1.1/DTD/svg11.dtd">
<svg version="1.1" id="Capa_1" xmlns="http://www.w3.org/2000/svg" xmlns:xlink="http://www.w3.org/1999/xlink" x="0px" y="0px"
	 width="16px" height="16px" fill="#fff" viewBox="0 0 400.9 400.9" style="enable-background:new 0 0 400.9 400.9;" xml:space="preserve"
	>
<g>
	<path d="M124.25,168.9c-3.7,3.1-8,4.3-14.1,4.9v-33c7.3,2.4,12.2,4.9,15.3,7.3c2.4,2.4,4.3,6.1,4.3,10.4
		C129.151,162.8,127.351,166.4,124.25,168.9z M97.951,82.6c-5.5,0.6-9.8,2.4-12.9,4.9c-3.1,3.1-4.9,6.7-4.9,10.4
		c0,4.3,1.2,7.3,3.7,9.8c2.4,2.4,7.3,4.9,14.1,7.3V82.6L97.951,82.6z M385.55,152.4v203.2c0,25.1-20.199,45.301-45.299,45.301
		h-279.6c-25.1,0-45.3-20.201-45.3-45.301V45.3c0-25.1,20.2-45.3,45.3-45.3h175c17.699,0,26.299,4.9,37.299,16.5l95.5,96.7
		C381.251,125.4,385.55,133.4,385.55,152.4z M184.25,107.1h67.299c8,0,14.102-6.1,14.102-13.5V83.2c0-7.3-6.102-13.5-14.102-13.5
		H184.25V107.1z M97.951,137.7v36.1c-11-1.8-21.4-6.7-31.8-15.9l-13.5,15.9c13.5,11.6,28.8,18.4,45.3,20.2v13.4h11.6v-13.5
		c12.9-0.6,22.6-4.3,30.6-11c7.3-6.7,11.6-15.9,11.6-26.3c0-11-3.1-19-9.8-24.5s-17.1-10.4-31.2-13.5h-0.6V83.7
		c9.8,1.2,18.4,5.5,26.3,11l12.2-17.1c-12.2-8-25.1-12.9-38.6-13.5V53.7h-11.6v9.2c-11.6,0.6-21.4,4.3-28.8,11
		c-7.3,6.7-11.6,15.9-11.6,26.3c0,10.4,3.7,18.4,9.8,24.5C74.051,129.7,83.851,134.6,97.951,137.7z M349.45,336
		c0-7.301-6.1-13.5-14.1-13.5H64.25c-8,0-13.5,6.1-13.5,13.5v10.4c0,7.299,6.1,13.5,13.5,13.5h271.1c7.301,0,14.1-6.1,14.1-13.5V336
		L349.45,336z M349.45,251.5c0-7.301-6.1-13.5-14.1-13.5H64.25c-8,0-13.5,6.1-13.5,13.5v10.4c0,7.299,6.1,13.5,13.5,13.5h271.1
		c7.301,0,14.1-6.1,14.1-13.5V251.5L349.45,251.5z M349.45,167c0-7.3-6.1-13.5-14.1-13.5h-151.1v37.3h151.2
		c7.301,0,14.1-6.1,14.1-13.5V167H349.45z"/>
</g>
<g>
</g>
<g>
</g>
<g>
</g>
<g>
</g>
<g>
</g>
<g>
</g>
<g>
</g>
<g>
</g>
<g>
</g>
<g>
</g>
<g>
</g>
<g>
</g>
<g>
</g>
<g>
</g>
<g>
</g>
</svg>
