<?xml version="1.0" encoding="iso-8859-1"?>
<!-- Generator: Adobe Illustrator 16.0.0, SVG Export Plug-In . SVG Version: 6.00 Build 0)  -->
<!DOCTYPE svg PUBLIC "-//W3C//DTD SVG 1.1//EN" "http://www.w3.org/Graphics/SVG/1.1/DTD/svg11.dtd">
<svg version="1.1" id="Capa_1" xmlns="http://www.w3.org/2000/svg" xmlns:xlink="http://www.w3.org/1999/xlink" x="0px" y="0px"
	 width="462.189px" height="462.188px" viewBox="0 0 462.189 462.188" style="enable-background:new 0 0 462.189 462.188;"
	 xml:space="preserve">
<g>
	<path d="M428.328,118.851h-8.407l31.039-31.043c9.979-9.978,9.979-26.142,0-36.118c-9.972-9.978-26.142-9.978-36.116,0
		l-48.395,48.396c-1.164-0.106-2.288-0.353-3.48-0.353c-14.512,0-27.141,7.669-34.32,19.117H131.175
		c-7.181-11.448-19.82-19.117-34.321-19.117c-1.193,0-2.32,0.247-3.48,0.353L44.98,51.69c-9.976-9.978-26.145-9.978-36.115,0
		c-9.979,9.976-9.979,26.14,0,36.118l31.037,31.043h-6.041C15.158,118.851,0,134.014,0,152.705v23.705
		c0,17.661,13.584,32,30.843,33.552l25.409,168.726c0,21.696,17.591,39.295,39.292,39.295h271.101
		c21.702,0,39.289-17.599,39.289-39.295l25.414-168.726c17.259-1.552,30.841-15.891,30.841-33.552v-23.705
		C462.194,134.014,447.029,118.851,428.328,118.851z M156.946,378.677H96.315l-8.64-66.32h69.271V378.677z M156.946,286.561H83.749
		l-7.863-66.328h81.061V286.561z M261.961,378.677h-61.417v-66.325h61.417V378.677z M261.961,286.561h-61.417v-66.321h61.417
		V286.561z M358.921,378.677h-48.446v-66.325h60.227L358.921,378.677z M375.828,286.561h-65.353v-66.321h77.139L375.828,286.561z"/>
</g>
<g>
</g>
<g>
</g>
<g>
</g>
<g>
</g>
<g>
</g>
<g>
</g>
<g>
</g>
<g>
</g>
<g>
</g>
<g>
</g>
<g>
</g>
<g>
</g>
<g>
</g>
<g>
</g>
<g>
</g>
</svg>
